<svg xmlns:xlink="http://www.w3.org/1999/xlink" xmlns="http://www.w3.org/2000/svg" viewBox="0 0 32 32" class="r-111h2gw r-4qtqp9 r-yyyyoo r-1q142lx r-1xvli5t r-zso239 r-dnmrzs r-bnwqim r-1plcrui r-lrvibr" width="32"  height="32" ><g fill="#8899A6"><path d="M18.672 15.25H8.078c-.414 0-.75.336-.75.75s.336.75.75.75h10.594c.414 0 .75-.336.75-.75s-.336-.75-.75-.75zm0-5.297H8.078c-.414 0-.75.336-.75.75s.336.75.75.75h10.594c.414 0 .75-.336.75-.75s-.336-.75-.75-.75zm-4.304 10.594h-6.29c-.414 0-.75.336-.75.75s.336.75.75.75h6.29c.414 0 .75-.336.75-.75s-.336-.75-.75-.75z" fill="#8899A6"></path><path d="M29.284 15.25h-4.548V5.736C24.736 4.228 23.51 3 22 3H4.75C3.24 3 2.014 4.228 2.014 5.736v20.527C2.014 27.773 3.24 29 4.75 29h21.885c1.874 0 3.4-1.524 3.4-3.398V16c0-.414-.337-.75-.75-.75zM3.514 26.264V5.736c0-.68.554-1.236 1.236-1.236H22c.682 0 1.236.555 1.236 1.236V25.6c0 .704.214 1.357.58 1.9H4.75c-.682 0-1.236-.555-1.236-1.236zm23.12 1.236c-1.046 0-1.897-.852-1.897-1.898V16.75h3.798v8.852c0 1.046-.853 1.898-1.9 1.898z" fill="#8899A6"></path></g></svg>